<svg width="222" height="38" viewBox="0 0 222 38" fill="none" xmlns="http://www.w3.org/2000/svg">
<path d="M7.18877 1.91714L5.22233 0.628573C5.0504 0.52381 4.99668 0.398095 5.06115 0.251429C5.12562 0.0838097 5.24382 0 5.41575 0H14.2808L15.6348 4.36857C15.8282 4.95524 16.0216 5.55238 16.215 6.16C16.4084 6.74667 16.5911 7.31238 16.763 7.85714C16.935 8.4019 17.0854 8.90476 17.2144 9.36572C17.3648 9.80571 17.483 10.1724 17.569 10.4657C17.569 10.5914 17.5582 10.8114 17.5367 11.1257C17.5152 11.44 17.4937 11.7752 17.4722 12.1314C17.4722 12.4876 17.4615 12.8229 17.44 13.1371C17.4185 13.4514 17.4078 13.6714 17.4078 13.7971C17.6442 13.5457 18.0095 13.1581 18.5038 12.6343C19.0196 12.1105 19.5999 11.5133 20.2446 10.8429C20.8893 10.1724 21.5878 9.44952 22.34 8.67429C23.0922 7.89905 23.8444 7.12381 24.5965 6.34857C25.4992 5.44762 26.4125 4.50476 27.3367 3.52C28.2823 2.53524 29.2709 1.50857 30.3024 0.44C30.5603 0.146667 30.9042 0 31.334 0H37.9103C37.8673 0.146667 37.7276 0.544762 37.4912 1.19429C37.2763 1.84381 36.9969 2.66095 36.653 3.64571C36.3092 4.60952 35.9223 5.69905 35.4925 6.91429C35.0627 8.10857 34.6221 9.33429 34.1708 10.5914C33.741 11.8276 33.3112 13.0429 32.8814 14.2371C32.4515 15.4314 32.0539 16.521 31.6886 17.5057C31.3447 18.4695 31.0546 19.2762 30.8182 19.9257C30.6033 20.5543 30.4744 20.9314 30.4314 21.0571C30.2165 21.6857 29.7651 22 29.0774 22H22.5334L25.6281 13.2314L19.3097 19.2343C19.0304 19.4857 18.6972 19.6114 18.3104 19.6114H12.9269L10.7348 13.2629L7.96244 21.0571C7.74753 21.6857 7.29622 22 6.60851 22H0C0.150438 21.56 0.397585 20.879 0.741442 19.9571C1.06381 19.0352 1.4399 17.9667 1.86972 16.7514C2.29955 15.5362 2.7616 14.2371 3.2559 12.8543C3.75019 11.4714 4.23374 10.1095 4.70655 8.76857C5.20084 7.42762 5.6629 6.16 6.09272 4.96571C6.52254 3.77143 6.88789 2.75524 7.18877 1.91714Z" fill="white"/>
<path d="M37.369 16.9714L41.592 4.99714C41.8284 4.30572 42.1723 3.66667 42.6236 3.08C43.0749 2.47238 43.6122 1.9381 44.2354 1.47714C44.8802 1.01619 45.6001 0.660001 46.3953 0.408572C47.1905 0.136191 48.0394 0 48.942 0H63.2228C64.061 0 64.8131 0.125715 65.4794 0.377144C66.1671 0.607619 66.7151 0.942857 67.1234 1.38286C67.5533 1.82286 67.8326 2.34667 67.9616 2.95429C68.0905 3.56191 68.0261 4.24286 67.7682 4.99714L63.5129 16.9714C63.2765 17.6419 62.9327 18.281 62.4814 18.8886C62.0515 19.4962 61.5143 20.0305 60.8695 20.4914C60.2463 20.9524 59.5371 21.319 58.7419 21.5914C57.9467 21.8638 57.0871 22 56.163 22H41.9144C41.0763 22 40.3133 21.8848 39.6256 21.6543C38.9594 21.4029 38.4114 21.0571 37.9815 20.6171C37.5517 20.1771 37.2723 19.6533 37.1434 19.0457C37.0144 18.4171 37.0897 17.7257 37.369 16.9714ZM45.5249 16.6886H55.5505C55.8944 16.6886 56.0985 16.5524 56.163 16.28L59.9347 5.72C60.0206 5.44762 59.9024 5.31143 59.5801 5.31143H46.4598C46.2878 5.31143 46.1696 5.39524 46.1052 5.56286C46.0407 5.70952 46.0729 5.83524 46.2019 5.94L48.2005 7.7L45.1703 16.28C45.0843 16.5524 45.2025 16.6886 45.5249 16.6886Z" fill="white"/>
<path d="M69.3631 0H78.744L80.646 10.2771L80.2913 14.5514C80.2699 14.719 80.3451 14.8343 80.517 14.8971C80.6889 14.96 80.8286 14.9286 80.9361 14.8029C82.204 13.3362 83.3216 12.0476 84.2887 10.9371C85.2558 9.80571 86.1907 8.71619 87.0933 7.66857C87.9959 6.6 88.9308 5.51048 89.8979 4.4C90.8864 3.26857 92.0362 1.95905 93.3472 0.471428C93.6695 0.157143 94.0349 0 94.4432 0H101.922C101.578 0.377143 101.073 0.942857 100.407 1.69714C99.7623 2.43048 98.9993 3.27905 98.1182 4.24286C97.2586 5.20667 96.3237 6.26476 95.3136 7.41714C94.325 8.54857 93.3149 9.70095 92.2834 10.8743C91.2518 12.0267 90.231 13.1686 89.2209 14.3C88.2323 15.4105 87.3082 16.4476 86.4485 17.4114C85.6104 18.3752 84.8689 19.2133 84.2242 19.9257C83.5795 20.6381 83.0959 21.1724 82.7736 21.5286C82.5157 21.8429 82.1503 22 81.6775 22H74.8756C74.7681 21.4133 74.607 20.5543 74.392 19.4229C74.1986 18.2914 73.9837 17.0448 73.7473 15.6829C73.5109 14.3 73.253 12.8752 72.9736 11.4086C72.7157 9.92095 72.4686 8.5381 72.2322 7.26C72.0173 5.96095 71.8131 4.84 71.6197 3.89714C71.4478 2.93333 71.3296 2.28381 71.2651 1.94857C71.1147 1.84381 71.0287 1.79143 71.0072 1.79143C70.9857 1.77048 70.932 1.73905 70.846 1.69714C70.7815 1.63429 70.6311 1.54 70.3947 1.41429C70.1798 1.26762 69.7822 1.00571 69.202 0.628573C69.0515 0.52381 68.9978 0.398095 69.0408 0.251429C69.0837 0.104762 69.1912 0.0209521 69.3631 0Z" fill="white"/>
<path d="M99.6827 18.0086L105.324 1.91714C105.281 1.83333 105.055 1.66572 104.647 1.41429C104.26 1.1419 103.863 0.88 103.454 0.628573C103.304 0.52381 103.25 0.398095 103.293 0.251429C103.358 0.0838097 103.476 0 103.648 0H129.244L127.696 4.36857C127.46 4.99714 127.009 5.31143 126.342 5.31143H109.483C109.311 5.31143 109.192 5.39524 109.128 5.56286C109.085 5.70952 109.128 5.83524 109.257 5.94L110.998 7.48L110.514 8.76857H121.539L120.282 12.2886C120.045 12.9171 119.594 13.2314 118.928 13.2314H107.419C107.248 13.2314 107.129 13.3048 107.065 13.4514C107.022 13.5981 107.054 13.7238 107.162 13.8286L108.354 14.8971L107.71 16.6886H123.344L121.765 21.0571C121.55 21.6857 121.099 22 120.411 22H102.584C102.068 22 101.585 21.8848 101.133 21.6543C100.703 21.4238 100.36 21.12 100.102 20.7429C99.8224 20.3657 99.6397 19.9362 99.5537 19.4543C99.4678 18.9724 99.5107 18.4905 99.6827 18.0086Z" fill="white"/>
<path d="M127.317 22C127.532 21.4133 127.811 20.6381 128.155 19.6743C128.499 18.6895 128.886 17.6105 129.316 16.4371C129.746 15.2429 130.186 13.9857 130.637 12.6657C131.11 11.3248 131.572 10.0152 132.024 8.73714C132.475 7.4381 132.905 6.2019 133.313 5.02857C133.721 3.85524 134.076 2.8181 134.377 1.91714L132.475 0.628573C132.324 0.52381 132.271 0.398095 132.314 0.251429C132.378 0.0838097 132.496 0 132.668 0H154.138C155.062 0 155.857 0.146667 156.523 0.44C157.211 0.712381 157.748 1.07905 158.135 1.54C158.544 2.00095 158.791 2.53524 158.877 3.14286C158.984 3.75048 158.92 4.36857 158.683 4.99714L156.652 10.6857C156.416 11.3562 156.072 11.9952 155.621 12.6029C155.169 13.2105 154.621 13.7448 153.977 14.2057C153.353 14.6667 152.644 15.0333 151.849 15.3057C151.075 15.5781 150.237 15.7143 149.335 15.7143H137.085L135.215 21.0571C135 21.6857 134.549 22 133.861 22H127.317ZM138.181 5.94L140.018 7.54286L138.922 10.6229H148.625C148.948 10.6229 149.152 10.4971 149.238 10.2457L150.85 5.72C150.85 5.69905 150.85 5.67809 150.85 5.65714C150.871 5.63619 150.871 5.60476 150.85 5.56286C150.807 5.39524 150.689 5.31143 150.495 5.31143H138.439C138.267 5.31143 138.149 5.39524 138.084 5.56286C138.041 5.70952 138.073 5.83524 138.181 5.94Z" fill="white"/>
<path d="M158.2 22C158.458 21.2457 158.78 20.3343 159.167 19.2657C159.554 18.1762 159.962 17.0133 160.392 15.7771C160.843 14.52 161.305 13.2314 161.778 11.9114C162.273 10.5914 162.735 9.31333 163.164 8.07714C163.616 6.84095 164.035 5.68857 164.422 4.62C164.808 3.55143 165.131 2.65048 165.389 1.91714L163.455 0.628573C163.304 0.52381 163.25 0.398095 163.293 0.251429C163.358 0.0838097 163.487 0 163.68 0H185.44C186.278 0 187.03 0.125715 187.696 0.377144C188.384 0.607619 188.932 0.942857 189.341 1.38286C189.77 1.82286 190.05 2.35714 190.179 2.98571C190.308 3.59333 190.243 4.26381 189.985 4.99714C189.555 6.23333 189.201 7.27048 188.921 8.10857C188.642 8.94667 188.352 9.66952 188.051 10.2771C187.772 10.8848 187.439 11.419 187.052 11.88C186.686 12.341 186.181 12.8124 185.537 13.2943C184.978 13.7133 184.398 14.0276 183.796 14.2371C183.216 14.4257 182.668 14.5619 182.152 14.6457C181.636 14.7086 181.185 14.7505 180.798 14.7714C180.432 14.7714 180.185 14.7819 180.056 14.8029L183.345 19.8629C183.495 20.0933 183.57 20.3343 183.57 20.5857C183.57 20.8371 183.506 21.0676 183.377 21.2771C183.269 21.4867 183.108 21.6648 182.893 21.8114C182.678 21.9371 182.431 22 182.152 22H176.059L172.094 14.8029H168.451L166.227 21.0571C166.012 21.6857 165.561 22 164.873 22H158.2ZM169.16 5.94C169.354 6.10762 169.558 6.28572 169.773 6.47429C170.009 6.64191 170.213 6.80952 170.385 6.97714C170.493 7.0819 170.6 7.17619 170.708 7.26C170.815 7.34381 170.923 7.4381 171.03 7.54286L170.256 9.71143H180.25C180.594 9.71143 180.809 9.57524 180.895 9.30286L180.991 9.02C181.034 8.93619 181.066 8.8419 181.088 8.73714C181.131 8.61143 181.174 8.47524 181.217 8.32857C181.324 8.05619 181.421 7.77333 181.507 7.48C181.614 7.18667 181.722 6.90381 181.829 6.63143C181.872 6.46381 181.926 6.30667 181.991 6.16C182.055 6.01333 182.109 5.86667 182.152 5.72C182.281 5.44762 182.173 5.31143 181.829 5.31143H169.418C169.246 5.31143 169.128 5.39524 169.064 5.56286C169.021 5.70952 169.053 5.83524 169.16 5.94Z" fill="white"/>
<path d="M191.343 16.9714L195.566 4.99714C195.802 4.30572 196.146 3.66667 196.598 3.08C197.049 2.47238 197.586 1.9381 198.209 1.47714C198.854 1.01619 199.574 0.660001 200.369 0.408572C201.164 0.136191 202.013 0 202.916 0H217.197C218.035 0 218.787 0.125715 219.453 0.377144C220.141 0.607619 220.689 0.942857 221.097 1.38286C221.527 1.82286 221.807 2.34667 221.936 2.95429C222.064 3.56191 222 4.24286 221.742 4.99714L217.487 16.9714C217.25 17.6419 216.907 18.281 216.455 18.8886C216.025 19.4962 215.488 20.0305 214.843 20.4914C214.22 20.9524 213.511 21.319 212.716 21.5914C211.921 21.8638 211.061 22 210.137 22H195.888C195.05 22 194.287 21.8848 193.6 21.6543C192.933 21.4029 192.385 21.0571 191.955 20.6171C191.526 20.1771 191.246 19.6533 191.117 19.0457C190.988 18.4171 191.064 17.7257 191.343 16.9714ZM199.499 16.6886H209.524C209.868 16.6886 210.072 16.5524 210.137 16.28L213.909 5.72C213.995 5.44762 213.876 5.31143 213.554 5.31143H200.434C200.262 5.31143 200.144 5.39524 200.079 5.56286C200.015 5.70952 200.047 5.83524 200.176 5.94L202.174 7.7L199.144 16.28C199.058 16.5524 199.176 16.6886 199.499 16.6886Z" fill="white"/>
<path d="M0.97787 35.7686C1.03312 35.6324 1.12151 35.5276 1.24306 35.4543C1.3646 35.3705 1.50272 35.3286 1.65741 35.3286H9.72898C9.90577 35.339 10.0163 35.2762 10.0605 35.14L10.508 33.9143C10.5632 33.7886 10.5024 33.7257 10.3256 33.7257H4.69046C4.25954 33.7257 3.86728 33.6681 3.5137 33.5529C3.16012 33.4271 2.87284 33.2543 2.65185 33.0343C2.43086 32.8143 2.28722 32.5524 2.22093 32.2486C2.15463 31.9343 2.1933 31.5886 2.33694 31.2114L2.95019 29.4986C3.07173 29.1529 3.24852 28.8333 3.48056 28.54C3.72364 28.2362 4.0054 27.969 4.32583 27.7386C4.65732 27.5081 5.02747 27.33 5.4363 27.2043C5.84512 27.0681 6.28157 27 6.74565 27H16.2923C16.1487 27.3981 16.0216 27.7595 15.9111 28.0843C15.8006 28.409 15.6791 28.7705 15.5465 29.1686C15.436 29.4933 15.204 29.6557 14.8504 29.6557H5.68491C5.59651 29.6557 5.53574 29.6976 5.50259 29.7814C5.48049 29.8548 5.50259 29.9176 5.56889 29.97L6.41417 30.6929L6.28157 31.0857C6.23738 31.2114 6.29815 31.2743 6.46389 31.2743H12.1156C12.5466 31.2743 12.9333 31.3371 13.2758 31.4629C13.6294 31.5781 13.9167 31.7457 14.1377 31.9657C14.3587 32.1857 14.5023 32.4529 14.5686 32.7671C14.6349 33.071 14.5962 33.4114 14.4526 33.7886L13.8394 35.5014C13.7068 35.8367 13.53 36.1562 13.309 36.46C13.088 36.7638 12.8228 37.031 12.5134 37.2614C12.204 37.4814 11.8505 37.6595 11.4527 37.7957C11.066 37.9319 10.635 38 10.1599 38H0L0.97787 35.7686Z" fill="white"/>
<path d="M22.0325 38C22.143 37.7067 22.2866 37.319 22.4634 36.8371C22.6402 36.3448 22.8391 35.8052 23.0601 35.2186C23.2811 34.6214 23.5076 33.9929 23.7396 33.3329C23.9827 32.6624 24.2203 32.0076 24.4523 31.3686C24.6844 30.719 24.9054 30.101 25.1153 29.5143C25.3252 28.9276 25.5075 28.409 25.6622 27.9586L24.6844 27.3143C24.607 27.2619 24.5794 27.199 24.6015 27.1257C24.6346 27.0419 24.6954 27 24.7838 27H35.8221C36.2973 27 36.7061 27.0733 37.0486 27.22C37.4022 27.3562 37.6784 27.5395 37.8773 27.77C38.0873 28.0005 38.2143 28.2676 38.2585 28.5714C38.3138 28.8752 38.2806 29.1843 38.1591 29.4986L37.1149 32.3429C36.9934 32.6781 36.8166 32.9976 36.5846 33.3014C36.3525 33.6052 36.0708 33.8724 35.7393 34.1029C35.4188 34.3333 35.0542 34.5167 34.6454 34.6529C34.2476 34.789 33.8167 34.8571 33.3526 34.8571H27.0545L26.0932 37.5286C25.9827 37.8429 25.7506 38 25.3971 38H22.0325ZM27.618 29.97L28.5627 30.7714L27.9992 32.3114H32.988C33.1537 32.3114 33.2587 32.2486 33.3029 32.1229L34.1316 29.86C34.1316 29.8495 34.1316 29.839 34.1316 29.8286C34.1426 29.8181 34.1426 29.8024 34.1316 29.7814C34.1095 29.6976 34.0487 29.6557 33.9493 29.6557H27.7506C27.6622 29.6557 27.6014 29.6976 27.5683 29.7814C27.5462 29.8548 27.5627 29.9176 27.618 29.97Z" fill="white"/>
<path d="M44.6243 35.4857L46.7955 29.4986C46.917 29.1529 47.0938 28.8333 47.3258 28.54C47.5579 28.2362 47.8341 27.969 48.1545 27.7386C48.486 27.5081 48.8562 27.33 49.265 27.2043C49.6738 27.0681 50.1103 27 50.5744 27H57.9167C58.3476 27 58.7343 27.0629 59.0769 27.1886C59.4305 27.3038 59.7122 27.4714 59.9221 27.6914C60.1431 27.9114 60.2868 28.1733 60.3531 28.4771C60.4194 28.781 60.3862 29.1214 60.2536 29.4986L58.0658 35.4857C57.9443 35.821 57.7675 36.1405 57.5355 36.4443C57.3145 36.7481 57.0383 37.0152 56.7068 37.2457C56.3863 37.4762 56.0217 37.6595 55.6129 37.7957C55.2041 37.9319 54.7621 38 54.287 38H46.9612C46.5303 38 46.138 37.9424 45.7845 37.8271C45.4419 37.7014 45.1602 37.5286 44.9392 37.3086C44.7182 37.0886 44.5746 36.8267 44.5083 36.5229C44.442 36.2086 44.4806 35.8629 44.6243 35.4857ZM48.8175 35.3443H53.972C54.1488 35.3443 54.2538 35.2762 54.287 35.14L56.2261 29.86C56.2703 29.7238 56.2096 29.6557 56.0438 29.6557H49.2982C49.2098 29.6557 49.149 29.6976 49.1158 29.7814C49.0827 29.8548 49.0993 29.9176 49.1656 29.97L50.1932 30.85L48.6352 35.14C48.591 35.2762 48.6518 35.3443 48.8175 35.3443Z" fill="white"/>
<path d="M66.2031 38C66.3357 37.6229 66.5014 37.1671 66.7003 36.6329C66.8992 36.0881 67.1091 35.5067 67.3301 34.8886C67.5621 34.26 67.7997 33.6157 68.0428 32.9557C68.2969 32.2957 68.5345 31.6567 68.7555 31.0386C68.9875 30.4205 69.203 29.8443 69.4019 29.31C69.6008 28.7757 69.7665 28.3252 69.8991 27.9586L68.9046 27.3143C68.8273 27.2619 68.7997 27.199 68.8218 27.1257C68.8549 27.0419 68.9212 27 69.0207 27H80.2082C80.6391 27 81.0258 27.0629 81.3683 27.1886C81.7219 27.3038 82.0037 27.4714 82.2136 27.6914C82.4346 27.9114 82.5783 28.1786 82.6446 28.4929C82.7109 28.7967 82.6777 29.1319 82.5451 29.4986C82.3241 30.1167 82.1418 30.6352 81.9982 31.0543C81.8545 31.4733 81.7054 31.8348 81.5507 32.1386C81.407 32.4424 81.2358 32.7095 81.0369 32.94C80.849 33.1705 80.5894 33.4062 80.2579 33.6471C79.9706 33.8567 79.6723 34.0138 79.3629 34.1186C79.0646 34.2129 78.7828 34.281 78.5176 34.3229C78.2524 34.3543 78.0204 34.3752 77.8215 34.3857C77.6337 34.3857 77.5066 34.391 77.4403 34.4014L79.1309 36.9314C79.2082 37.0467 79.2469 37.1671 79.2469 37.2929C79.2469 37.4186 79.2137 37.5338 79.1474 37.6386C79.0922 37.7433 79.0093 37.8324 78.8988 37.9057C78.7883 37.9686 78.6612 38 78.5176 38H75.3851L73.3465 34.4014H71.4736L70.33 37.5286C70.2195 37.8429 69.9875 38 69.6339 38H66.2031ZM71.8383 29.97C71.9377 30.0538 72.0427 30.1429 72.1532 30.2371C72.2747 30.321 72.3797 30.4048 72.4681 30.4886C72.5233 30.541 72.5786 30.5881 72.6338 30.63C72.6891 30.6719 72.7443 30.719 72.7996 30.7714L72.4018 31.8557H77.5397C77.7165 31.8557 77.827 31.7876 77.8712 31.6514L77.9209 31.51C77.943 31.4681 77.9596 31.421 77.9707 31.3686C77.9928 31.3057 78.0149 31.2376 78.037 31.1643C78.0922 31.0281 78.1419 30.8867 78.1861 30.74C78.2414 30.5933 78.2966 30.4519 78.3519 30.3157C78.374 30.2319 78.4016 30.1533 78.4347 30.08C78.4679 30.0067 78.4955 29.9333 78.5176 29.86C78.5839 29.7238 78.5287 29.6557 78.3519 29.6557H71.9709C71.8825 29.6557 71.8217 29.6976 71.7885 29.7814C71.7664 29.8548 71.783 29.9176 71.8383 29.97Z" fill="white"/>
<path d="M89.1205 27H102.479C102.435 27.1257 102.374 27.2829 102.297 27.4714C102.231 27.66 102.159 27.859 102.081 28.0686C102.004 28.2676 101.927 28.4667 101.849 28.6657C101.783 28.8543 101.722 29.0271 101.667 29.1843C101.557 29.4986 101.325 29.6557 100.971 29.6557H96.8274C96.739 29.6557 96.6783 29.6976 96.6451 29.7814C96.623 29.8548 96.6451 29.9176 96.7114 29.97L97.7224 30.85L95.286 37.5286C95.1756 37.8429 94.9435 38 94.5899 38H91.2088L94.275 29.6557H89.4354C89.4464 29.6243 89.4851 29.53 89.5514 29.3729C89.6288 29.2052 89.7061 29.0271 89.7834 28.8386C89.8718 28.6395 89.9547 28.4562 90.0321 28.2886C90.1094 28.1105 90.1536 28.0005 90.1646 27.9586L89.0376 27.33C88.9492 27.2776 88.9161 27.2095 88.9382 27.1257C88.9713 27.0419 89.0321 27 89.1205 27Z" fill="white"/>
<path d="M108.45 35.7686C108.506 35.6324 108.594 35.5276 108.716 35.4543C108.837 35.3705 108.975 35.3286 109.13 35.3286H117.202C117.378 35.339 117.489 35.2762 117.533 35.14L117.98 33.9143C118.036 33.7886 117.975 33.7257 117.798 33.7257H112.163C111.732 33.7257 111.34 33.6681 110.986 33.5529C110.633 33.4271 110.345 33.2543 110.124 33.0343C109.903 32.8143 109.76 32.5524 109.693 32.2486C109.627 31.9343 109.666 31.5886 109.809 31.2114L110.423 29.4986C110.544 29.1529 110.721 28.8333 110.953 28.54C111.196 28.2362 111.478 27.969 111.798 27.7386C112.13 27.5081 112.5 27.33 112.909 27.2043C113.318 27.0681 113.754 27 114.218 27H123.765C123.621 27.3981 123.494 27.7595 123.384 28.0843C123.273 28.409 123.152 28.7705 123.019 29.1686C122.909 29.4933 122.676 29.6557 122.323 29.6557H113.157C113.069 29.6557 113.008 29.6976 112.975 29.7814C112.953 29.8548 112.975 29.9176 113.041 29.97L113.887 30.6929L113.754 31.0857C113.71 31.2114 113.771 31.2743 113.936 31.2743H119.588C120.019 31.2743 120.406 31.3371 120.748 31.4629C121.102 31.5781 121.389 31.7457 121.61 31.9657C121.831 32.1857 121.975 32.4529 122.041 32.7671C122.107 33.071 122.069 33.4114 121.925 33.7886L121.312 35.5014C121.179 35.8367 121.002 36.1562 120.782 36.46C120.561 36.7638 120.295 37.031 119.986 37.2614C119.677 37.4814 119.323 37.6595 118.925 37.7957C118.538 37.9319 118.108 38 117.632 38H107.473L108.45 35.7686Z" fill="white"/>
<path d="M130.615 27H135.588L135.936 31.84L135.671 34.3229L138.438 31.1643C138.814 30.7452 139.201 30.3052 139.599 29.8443C140.007 29.3729 140.444 28.8805 140.908 28.3671H143.361C143.549 28.3671 143.709 28.4248 143.842 28.54C143.985 28.6448 144.068 28.7862 144.09 28.9643L144.571 31.8243L144.422 34.2443C145.074 33.4586 145.703 32.699 146.311 31.9657C146.919 31.2219 147.477 30.541 147.985 29.9229C148.493 29.2943 148.93 28.7495 149.294 28.2886C149.67 27.8276 149.946 27.4871 150.123 27.2671C150.278 27.089 150.477 27 150.72 27H154.499C154.245 27.3038 153.919 27.6967 153.521 28.1786C153.123 28.65 152.687 29.1686 152.212 29.7343C151.736 30.3 151.239 30.8971 150.72 31.5257C150.201 32.1438 149.687 32.7514 149.178 33.3486C148.681 33.9457 148.206 34.5167 147.753 35.0614C147.3 35.5957 146.902 36.0671 146.56 36.4757C146.217 36.8738 145.947 37.1881 145.748 37.4186C145.56 37.649 145.471 37.7538 145.482 37.7329C145.35 37.911 145.156 38 144.902 38H141.521L140.941 32.5471C140.908 32.589 140.781 32.741 140.56 33.0029C140.339 33.2648 140.068 33.5843 139.748 33.9614C139.438 34.3281 139.101 34.7262 138.737 35.1557C138.383 35.5852 138.046 35.9886 137.726 36.3657C137.416 36.7324 137.151 37.0467 136.93 37.3086C136.72 37.56 136.604 37.7014 136.582 37.7329C136.45 37.911 136.256 38 136.002 38H132.638C132.604 37.7276 132.56 37.3295 132.505 36.8057C132.45 36.2714 132.383 35.6795 132.306 35.03C132.24 34.37 132.168 33.6838 132.091 32.9714C132.024 32.259 131.952 31.5781 131.875 30.9286C131.809 30.2686 131.748 29.6767 131.693 29.1529C131.638 28.629 131.593 28.231 131.56 27.9586C131.527 27.9376 131.455 27.8957 131.345 27.8329C131.234 27.7595 131.118 27.681 130.997 27.5971C130.919 27.5552 130.842 27.5133 130.765 27.4714C130.698 27.419 130.621 27.3667 130.533 27.3143C130.455 27.2619 130.428 27.199 130.45 27.1257C130.472 27.0524 130.527 27.0105 130.615 27Z" fill="white"/>
<path d="M159.791 36.0043L162.692 27.9586C162.67 27.9167 162.554 27.8329 162.344 27.7071C162.145 27.571 161.941 27.44 161.731 27.3143C161.653 27.2619 161.626 27.199 161.648 27.1257C161.681 27.0419 161.742 27 161.83 27H174.99L174.194 29.1843C174.073 29.4986 173.841 29.6557 173.498 29.6557H164.83C164.742 29.6557 164.681 29.6976 164.648 29.7814C164.626 29.8548 164.648 29.9176 164.714 29.97L165.609 30.74L165.36 31.3843H171.029L170.382 33.1443C170.261 33.4586 170.029 33.6157 169.686 33.6157H163.769C163.681 33.6157 163.62 33.6524 163.587 33.7257C163.565 33.799 163.581 33.8619 163.637 33.9143L164.25 34.4486L163.918 35.3443H171.957L171.145 37.5286C171.034 37.8429 170.802 38 170.449 38H161.283C161.018 38 160.769 37.9424 160.537 37.8271C160.316 37.7119 160.139 37.56 160.007 37.3714C159.863 37.1829 159.769 36.9681 159.725 36.7271C159.681 36.4862 159.703 36.2452 159.791 36.0043Z" fill="white"/>
<path d="M181.482 38C181.593 37.6752 181.742 37.2562 181.93 36.7429C182.118 36.219 182.328 35.6481 182.56 35.03C182.792 34.4014 183.029 33.7467 183.272 33.0657C183.526 32.3848 183.769 31.73 184.001 31.1014C184.234 30.4624 184.449 29.8705 184.648 29.3257C184.847 28.781 185.007 28.3305 185.129 27.9743L184.118 27.3143C184.04 27.2619 184.013 27.199 184.035 27.1257C184.068 27.0419 184.129 27 184.217 27H198.786C198.697 27.241 198.559 27.6233 198.371 28.1471C198.183 28.671 197.968 29.2681 197.725 29.9386C197.482 30.609 197.228 31.3214 196.962 32.0757C196.697 32.83 196.438 33.5581 196.183 34.26C195.94 34.9619 195.714 35.601 195.504 36.1771C195.305 36.7533 195.15 37.2038 195.04 37.5286C194.929 37.8429 194.697 38 194.344 38H190.913L191.94 35.3443H186.355L185.559 37.5286C185.449 37.8429 185.217 38 184.863 38H181.482ZM187.167 33.1129H192.753L193.863 30.0329C193.963 29.7814 193.847 29.6557 193.515 29.6557H187.565C187.477 29.6557 187.416 29.6976 187.383 29.7814C187.361 29.8548 187.383 29.9176 187.449 29.97L188.112 30.5357L187.167 33.1129Z" fill="white"/>
<path d="M204.525 38C204.658 37.6229 204.824 37.1671 205.023 36.6329C205.221 36.0881 205.431 35.5067 205.652 34.8886C205.884 34.26 206.122 33.6157 206.365 32.9557C206.619 32.2957 206.857 31.6567 207.078 31.0386C207.31 30.4205 207.525 29.8443 207.724 29.31C207.923 28.7757 208.089 28.3252 208.221 27.9586L207.227 27.3143C207.15 27.2619 207.122 27.199 207.144 27.1257C207.177 27.0419 207.244 27 207.343 27H218.53C218.961 27 219.348 27.0629 219.691 27.1886C220.044 27.3038 220.326 27.4714 220.536 27.6914C220.757 27.9114 220.901 28.1786 220.967 28.4929C221.033 28.7967 221 29.1319 220.867 29.4986C220.646 30.1167 220.464 30.6352 220.32 31.0543C220.177 31.4733 220.028 31.8348 219.873 32.1386C219.729 32.4424 219.558 32.7095 219.359 32.94C219.171 33.1705 218.912 33.4062 218.58 33.6471C218.293 33.8567 217.995 34.0138 217.685 34.1186C217.387 34.2129 217.105 34.281 216.84 34.3229C216.575 34.3543 216.343 34.3752 216.144 34.3857C215.956 34.3857 215.829 34.391 215.763 34.4014L217.453 36.9314C217.531 37.0467 217.569 37.1671 217.569 37.2929C217.569 37.4186 217.536 37.5338 217.47 37.6386C217.414 37.7433 217.332 37.8324 217.221 37.9057C217.111 37.9686 216.984 38 216.84 38H213.707L211.669 34.4014H209.796L208.652 37.5286C208.542 37.8429 208.31 38 207.956 38H204.525ZM210.161 29.97C210.26 30.0538 210.365 30.1429 210.475 30.2371C210.597 30.321 210.702 30.4048 210.79 30.4886C210.846 30.541 210.901 30.5881 210.956 30.63C211.011 30.6719 211.067 30.719 211.122 30.7714L210.724 31.8557H215.862C216.039 31.8557 216.149 31.7876 216.194 31.6514L216.243 31.51C216.265 31.4681 216.282 31.421 216.293 31.3686C216.315 31.3057 216.337 31.2376 216.359 31.1643C216.415 31.0281 216.464 30.8867 216.508 30.74C216.564 30.5933 216.619 30.4519 216.674 30.3157C216.696 30.2319 216.724 30.1533 216.757 30.08C216.79 30.0067 216.818 29.9333 216.84 29.86C216.906 29.7238 216.851 29.6557 216.674 29.6557H210.293C210.205 29.6557 210.144 29.6976 210.111 29.7814C210.089 29.8548 210.105 29.9176 210.161 29.97Z" fill="white"/>
</svg>
