<svg width="106" height="48" viewBox="0 0 106 48" fill="none" xmlns="http://www.w3.org/2000/svg">
<path d="M24 4.5C20.1433 4.5 16.3731 5.64366 13.1664 7.78634C9.95962 9.92903 7.46026 12.9745 5.98435 16.5377C4.50844 20.1008 4.12228 24.0216 4.87469 27.8043C5.6271 31.5869 7.48429 35.0615 10.2114 37.7886C12.9385 40.5157 16.4131 42.3729 20.1957 43.1253C23.9784 43.8777 27.8992 43.4916 31.4623 42.0156C35.0255 40.5397 38.071 38.0404 40.2137 34.8336C42.3563 31.6269 43.5 27.8567 43.5 24C43.4945 18.83 41.4383 13.8732 37.7826 10.2174C34.1268 6.56167 29.17 4.50546 24 4.5ZM24 40.5C20.7366 40.5 17.5465 39.5323 14.8331 37.7192C12.1197 35.9062 10.0048 33.3293 8.75599 30.3143C7.50714 27.2993 7.18039 23.9817 7.81704 20.781C8.4537 17.5803 10.0252 14.6403 12.3327 12.3327C14.6403 10.0252 17.5803 8.4537 20.781 7.81704C23.9817 7.18039 27.2993 7.50714 30.3143 8.75599C33.3293 10.0048 35.9062 12.1197 37.7192 14.8331C39.5323 17.5465 40.5 20.7366 40.5 24C40.495 28.3745 38.7551 32.5685 35.6618 35.6618C32.5685 38.7551 28.3745 40.495 24 40.5ZM33 24C33 24.3978 32.842 24.7794 32.5607 25.0607C32.2794 25.342 31.8978 25.5 31.5 25.5H20.1206L23.5613 28.9387C23.7006 29.0781 23.8112 29.2436 23.8866 29.4257C23.962 29.6077 24.0008 29.8029 24.0008 30C24.0008 30.1971 23.962 30.3923 23.8866 30.5743C23.8112 30.7564 23.7006 30.9219 23.5613 31.0613C23.4219 31.2006 23.2564 31.3112 23.0743 31.3866C22.8923 31.462 22.6971 31.5008 22.5 31.5008C22.3029 31.5008 22.1077 31.462 21.9257 31.3866C21.7436 31.3112 21.5781 31.2006 21.4388 31.0613L15.4388 25.0613C15.2993 24.9219 15.1886 24.7565 15.1132 24.5744C15.0377 24.3923 14.9988 24.1971 14.9988 24C14.9988 23.8029 15.0377 23.6077 15.1132 23.4256C15.1886 23.2435 15.2993 23.0781 15.4388 22.9387L21.4388 16.9387C21.7202 16.6573 22.102 16.4992 22.5 16.4992C22.898 16.4992 23.2798 16.6573 23.5613 16.9387C23.8427 17.2202 24.0008 17.602 24.0008 18C24.0008 18.398 23.8427 18.7798 23.5613 19.0613L20.1206 22.5H31.5C31.8978 22.5 32.2794 22.658 32.5607 22.9393C32.842 23.2206 33 23.6022 33 24Z" fill="white" fill-opacity="0.5"/>
<path d="M82 4.5C78.1433 4.5 74.3731 5.64366 71.1664 7.78634C67.9596 9.92903 65.4603 12.9745 63.9843 16.5377C62.5084 20.1008 62.1223 24.0216 62.8747 27.8043C63.6271 31.5869 65.4843 35.0615 68.2114 37.7886C70.9385 40.5157 74.4131 42.3729 78.1957 43.1253C81.9784 43.8777 85.8992 43.4916 89.4623 42.0156C93.0255 40.5397 96.071 38.0404 98.2137 34.8336C100.356 31.6269 101.5 27.8567 101.5 24C101.495 18.83 99.4383 13.8732 95.7826 10.2174C92.1268 6.56167 87.17 4.50546 82 4.5ZM82 40.5C78.7366 40.5 75.5465 39.5323 72.8331 37.7192C70.1197 35.9062 68.0048 33.3293 66.756 30.3143C65.5071 27.2993 65.1804 23.9817 65.817 20.781C66.4537 17.5803 68.0252 14.6403 70.3327 12.3327C72.6403 10.0252 75.5803 8.4537 78.781 7.81704C81.9817 7.18039 85.2993 7.50714 88.3143 8.75599C91.3293 10.0048 93.9062 12.1197 95.7192 14.8331C97.5323 17.5465 98.5 20.7366 98.5 24C98.495 28.3745 96.7551 32.5685 93.6618 35.6618C90.5685 38.7551 86.3745 40.495 82 40.5ZM90.5613 22.9387C90.7007 23.0781 90.8114 23.2435 90.8868 23.4256C90.9623 23.6077 91.0012 23.8029 91.0012 24C91.0012 24.1971 90.9623 24.3923 90.8868 24.5744C90.8114 24.7565 90.7007 24.9219 90.5613 25.0613L84.5613 31.0613C84.2798 31.3427 83.898 31.5008 83.5 31.5008C83.102 31.5008 82.7202 31.3427 82.4388 31.0613C82.1573 30.7798 81.9992 30.398 81.9992 30C81.9992 29.602 82.1573 29.2202 82.4388 28.9387L85.8794 25.5H74.5C74.1022 25.5 73.7206 25.342 73.4393 25.0607C73.158 24.7794 73 24.3978 73 24C73 23.6022 73.158 23.2206 73.4393 22.9393C73.7206 22.658 74.1022 22.5 74.5 22.5H85.8794L82.4388 19.0613C82.1573 18.7798 81.9992 18.398 81.9992 18C81.9992 17.602 82.1573 17.2202 82.4388 16.9387C82.7202 16.6573 83.102 16.4992 83.5 16.4992C83.898 16.4992 84.2798 16.6573 84.5613 16.9387L90.5613 22.9387Z" fill="white"/>
</svg>
