<svg width="68" height="24" viewBox="0 0 68 24" fill="none" xmlns="http://www.w3.org/2000/svg">
<path d="M16.6875 3C14.7516 3 13.0566 3.8325 12 5.23969C10.9434 3.8325 9.24844 3 7.3125 3C5.77146 3.00174 4.29404 3.61468 3.20436 4.70436C2.11468 5.79404 1.50174 7.27146 1.5 8.8125C1.5 15.375 11.2303 20.6869 11.6447 20.9062C11.7539 20.965 11.876 20.9958 12 20.9958C12.124 20.9958 12.2461 20.965 12.3553 20.9062C12.7697 20.6869 22.5 15.375 22.5 8.8125C22.4983 7.27146 21.8853 5.79404 20.7956 4.70436C19.706 3.61468 18.2285 3.00174 16.6875 3ZM12 19.3875C10.2881 18.39 3 13.8459 3 8.8125C3.00149 7.66921 3.45632 6.57317 4.26475 5.76475C5.07317 4.95632 6.16921 4.50149 7.3125 4.5C9.13594 4.5 10.6669 5.47125 11.3062 7.03125C11.3628 7.16881 11.4589 7.28646 11.5824 7.36926C11.7059 7.45207 11.8513 7.49627 12 7.49627C12.1487 7.49627 12.2941 7.45207 12.4176 7.36926C12.5411 7.28646 12.6372 7.16881 12.6937 7.03125C13.3331 5.46844 14.8641 4.5 16.6875 4.5C17.8308 4.50149 18.9268 4.95632 19.7353 5.76475C20.5437 6.57317 20.9985 7.66921 21 8.8125C21 13.8384 13.71 18.3891 12 19.3875Z" fill="white"/>
<path d="M64.8256 5.51906C64.7552 5.43481 64.6672 5.36705 64.5677 5.32056C64.4683 5.27407 64.3598 5.24998 64.25 5.25H49.1263L48.6678 2.73187C48.605 2.38625 48.4229 2.07363 48.1533 1.84851C47.8836 1.62339 47.5435 1.50005 47.1922 1.5H45.5C45.3011 1.5 45.1103 1.57902 44.9697 1.71967C44.829 1.86032 44.75 2.05109 44.75 2.25C44.75 2.44891 44.829 2.63968 44.9697 2.78033C45.1103 2.92098 45.3011 3 45.5 3H47.1875L49.5838 16.1522C49.6543 16.5422 49.8267 16.9067 50.0834 17.2087C49.7291 17.5397 49.4734 17.9623 49.3446 18.4298C49.2157 18.8972 49.2189 19.3912 49.3537 19.8569C49.4885 20.3226 49.7497 20.7419 50.1082 21.0683C50.4668 21.3947 50.9087 21.6154 51.385 21.7059C51.8613 21.7965 52.3534 21.7533 52.8067 21.5813C53.26 21.4092 53.6568 21.115 53.9531 20.7312C54.2494 20.3474 54.4336 19.889 54.4853 19.407C54.537 18.9249 54.4541 18.4379 54.2459 18H58.5041C58.3363 18.3513 58.2495 18.7357 58.25 19.125C58.25 19.6442 58.404 20.1517 58.6924 20.5834C58.9808 21.0151 59.3908 21.3515 59.8705 21.5502C60.3501 21.7489 60.8779 21.8008 61.3871 21.6996C61.8963 21.5983 62.364 21.3483 62.7312 20.9812C63.0983 20.614 63.3483 20.1463 63.4496 19.6371C63.5508 19.1279 63.4989 18.6001 63.3002 18.1205C63.1015 17.6408 62.7651 17.2308 62.3334 16.9424C61.9017 16.654 61.3942 16.5 60.875 16.5H51.7972C51.6215 16.5 51.4515 16.4383 51.3167 16.3257C51.1818 16.2132 51.0908 16.0569 51.0594 15.8841L50.7622 14.25H61.6372C62.1641 14.2499 62.6743 14.0649 63.0788 13.7272C63.4833 13.3896 63.7564 12.9206 63.8506 12.4022L64.9906 6.13406C65.0099 6.02572 65.0051 5.91447 64.9766 5.80818C64.9481 5.7019 64.8966 5.60319 64.8256 5.51906ZM53 19.125C53 19.3475 52.934 19.565 52.8104 19.75C52.6868 19.935 52.5111 20.0792 52.3055 20.1644C52.1 20.2495 51.8738 20.2718 51.6555 20.2284C51.4373 20.185 51.2368 20.0778 51.0795 19.9205C50.9222 19.7632 50.815 19.5627 50.7716 19.3445C50.7282 19.1262 50.7505 18.9 50.8356 18.6945C50.9208 18.4889 51.065 18.3132 51.25 18.1896C51.435 18.066 51.6525 18 51.875 18C52.1734 18 52.4595 18.1185 52.6705 18.3295C52.8815 18.5405 53 18.8266 53 19.125ZM62 19.125C62 19.3475 61.934 19.565 61.8104 19.75C61.6868 19.935 61.5111 20.0792 61.3055 20.1644C61.1 20.2495 60.8738 20.2718 60.6555 20.2284C60.4373 20.185 60.2368 20.0778 60.0795 19.9205C59.9222 19.7632 59.815 19.5627 59.7716 19.3445C59.7282 19.1262 59.7505 18.9 59.8356 18.6945C59.9208 18.4889 60.065 18.3132 60.25 18.1896C60.435 18.066 60.6525 18 60.875 18C61.1734 18 61.4595 18.1185 61.6705 18.3295C61.8815 18.5405 62 18.8266 62 19.125ZM62.375 12.1341C62.3435 12.3074 62.2521 12.464 62.1166 12.5766C61.9812 12.6893 61.8105 12.7506 61.6344 12.75H50.4894L49.3991 6.75H63.3509L62.375 12.1341Z" fill="white"/>
</svg>
