<svg width="156" height="24" viewBox="0 0 156 24" fill="none" xmlns="http://www.w3.org/2000/svg">
<path d="M23.1928 6.46314C23.1361 6.32608 23.04 6.20893 22.9166 6.12649C22.7933 6.04406 22.6483 6.00004 22.5 6.00001H19.6472C19.2483 5.32143 18.6807 4.7576 17.9994 4.36333C17.3181 3.96906 16.5465 3.75778 15.7594 3.75001C15.173 3.74232 14.591 3.85199 14.0476 4.07256C13.5042 4.29313 13.0104 4.62015 12.5953 5.03439C12.1681 5.45366 11.829 5.95412 11.5979 6.50634C11.3669 7.05857 11.2486 7.65141 11.25 8.25001V8.82095C7.47562 7.82532 4.38844 4.75501 4.35562 4.7222C4.255 4.62069 4.12747 4.55004 3.98805 4.51858C3.84862 4.48712 3.70311 4.49615 3.56865 4.54462C3.43419 4.59309 3.31637 4.67896 3.22908 4.79214C3.14179 4.90532 3.08866 5.04109 3.07594 5.18345C2.67187 9.66376 3.97312 12.6619 5.13844 14.3878C5.70663 15.241 6.39786 16.0056 7.18969 16.6566C5.76187 18.3 3.51375 19.1634 3.48937 19.1728C3.38354 19.2125 3.28804 19.2755 3.21 19.3572C3.13195 19.439 3.07339 19.5373 3.03868 19.6448C3.00397 19.7524 2.99402 19.8664 3.00956 19.9783C3.0251 20.0903 3.06574 20.1972 3.12844 20.2913C3.19875 20.3963 3.48 20.7647 4.16719 21.1088C5.01656 21.5344 6.13875 21.75 7.5 21.75C14.1253 21.75 19.6612 16.6481 20.2266 10.0838L23.0306 7.28064C23.1355 7.17569 23.2069 7.04201 23.2357 6.89649C23.2646 6.75097 23.2497 6.60016 23.1928 6.46314ZM18.9741 9.22032C18.8455 9.34922 18.7682 9.5205 18.7566 9.7022C18.375 15.6169 13.4325 20.25 7.5 20.25C6.51 20.25 5.8125 20.1188 5.32312 19.9613C6.40219 19.3753 7.90687 18.3675 8.87437 16.9163C8.93116 16.8309 8.96985 16.7349 8.98806 16.634C9.00626 16.5331 9.0036 16.4296 8.98023 16.3298C8.95686 16.23 8.91328 16.136 8.85218 16.0537C8.79109 15.9714 8.71377 15.9025 8.625 15.8513C8.58094 15.8259 4.50844 13.3819 4.5 6.85126C6 8.07001 8.74219 9.96095 11.8753 10.4878C11.9827 10.5059 12.0927 10.5004 12.1978 10.4717C12.3028 10.443 12.4003 10.3918 12.4836 10.3215C12.5668 10.2513 12.6338 10.1638 12.6798 10.0651C12.7258 9.96644 12.7497 9.85891 12.75 9.75001V8.25001C12.7492 7.84993 12.8283 7.45373 12.9829 7.08471C13.1375 6.71569 13.3643 6.38132 13.65 6.10126C13.9239 5.82685 14.25 5.61014 14.6091 5.46393C14.9682 5.31772 15.3529 5.24498 15.7406 5.25001C16.9275 5.26501 18.0366 5.98876 18.5006 7.05095C18.5591 7.18449 18.6553 7.29809 18.7773 7.37785C18.8994 7.4576 19.042 7.50005 19.1878 7.50001H20.6878L18.9741 9.22032Z" fill="white"/>
<path d="M56 2.25C54.0716 2.25 52.1866 2.82183 50.5832 3.89317C48.9798 4.96451 47.7301 6.48726 46.9922 8.26884C46.2542 10.0504 46.0611 12.0108 46.4373 13.9021C46.8135 15.7934 47.7421 17.5307 49.1057 18.8943C50.4693 20.2579 52.2066 21.1865 54.0979 21.5627C55.9892 21.9389 57.9496 21.7458 59.7312 21.0078C61.5127 20.2699 63.0355 19.0202 64.1068 17.4168C65.1782 15.8134 65.75 13.9284 65.75 12C65.7473 9.41498 64.7192 6.93661 62.8913 5.10872C61.0634 3.28084 58.585 2.25273 56 2.25ZM56.75 20.2153V14.25H59C59.1989 14.25 59.3897 14.171 59.5303 14.0303C59.671 13.8897 59.75 13.6989 59.75 13.5C59.75 13.3011 59.671 13.1103 59.5303 12.9697C59.3897 12.829 59.1989 12.75 59 12.75H56.75V10.5C56.75 10.1022 56.908 9.72064 57.1893 9.43934C57.4706 9.15804 57.8522 9 58.25 9H59.75C59.9489 9 60.1397 8.92098 60.2803 8.78033C60.421 8.63968 60.5 8.44891 60.5 8.25C60.5 8.05109 60.421 7.86032 60.2803 7.71967C60.1397 7.57902 59.9489 7.5 59.75 7.5H58.25C57.4543 7.5 56.6913 7.81607 56.1287 8.37868C55.5661 8.94129 55.25 9.70435 55.25 10.5V12.75H53C52.8011 12.75 52.6103 12.829 52.4697 12.9697C52.329 13.1103 52.25 13.3011 52.25 13.5C52.25 13.6989 52.329 13.8897 52.4697 14.0303C52.6103 14.171 52.8011 14.25 53 14.25H55.25V20.2153C53.1357 20.0223 51.1773 19.0217 49.782 17.4215C48.3867 15.8214 47.6619 13.7449 47.7585 11.6241C47.8551 9.50324 48.7656 7.50127 50.3006 6.0346C51.8356 4.56793 53.877 3.74947 56 3.74947C58.123 3.74947 60.1644 4.56793 61.6994 6.0346C63.2344 7.50127 64.1448 9.50324 64.2415 11.6241C64.3381 13.7449 63.6133 15.8214 62.218 17.4215C60.8227 19.0217 58.8643 20.0223 56.75 20.2153Z" fill="white"/>
<path d="M103.416 11.3756L98.9163 8.37563C98.8033 8.30025 98.6719 8.25697 98.5363 8.2504C98.4006 8.24382 98.2657 8.27421 98.146 8.33831C98.0263 8.40241 97.9262 8.49783 97.8564 8.61436C97.7867 8.7309 97.7499 8.86419 97.75 9V15C97.7499 15.1358 97.7867 15.2691 97.8564 15.3856C97.9262 15.5022 98.0263 15.5976 98.146 15.6617C98.2657 15.7258 98.4006 15.7562 98.5363 15.7496C98.6719 15.743 98.8033 15.6998 98.9163 15.6244L103.416 12.6244C103.519 12.5559 103.603 12.4631 103.662 12.3542C103.72 12.2452 103.751 12.1236 103.751 12C103.751 11.8764 103.72 11.7548 103.662 11.6458C103.603 11.5369 103.519 11.4441 103.416 11.3756ZM99.25 13.5984V10.4063L101.648 12L99.25 13.5984ZM109.968 6.5175C109.88 6.17189 109.711 5.85224 109.475 5.58491C109.238 5.31758 108.942 5.11024 108.61 4.98C105.396 3.73875 100.281 3.75 100 3.75C99.7188 3.75 94.6037 3.73875 91.39 4.98C91.0579 5.11024 90.7615 5.31758 90.5253 5.58491C90.2891 5.85224 90.1199 6.17189 90.0316 6.5175C89.7888 7.45313 89.5 9.16313 89.5 12C89.5 14.8369 89.7888 16.5469 90.0316 17.4825C90.1198 17.8283 90.289 18.1481 90.5252 18.4156C90.7614 18.6831 91.0578 18.8906 91.39 19.0209C94.4688 20.2088 99.2875 20.25 99.9381 20.25H100.062C100.713 20.25 105.534 20.2088 108.61 19.0209C108.942 18.8906 109.239 18.6831 109.475 18.4156C109.711 18.1481 109.88 17.8283 109.968 17.4825C110.211 16.545 110.5 14.8369 110.5 12C110.5 9.16313 110.211 7.45313 109.968 6.5175ZM108.516 17.1113C108.488 17.2263 108.432 17.3329 108.355 17.4224C108.277 17.5118 108.179 17.5816 108.069 17.6259C105.102 18.7716 100.055 18.7509 100.007 18.7509H100C99.9494 18.7509 94.9066 18.7697 91.9375 17.6259C91.8276 17.5816 91.7298 17.5118 91.652 17.4224C91.5743 17.3329 91.5189 17.2263 91.4903 17.1113C91.2625 16.2553 91 14.6784 91 12C91 9.32157 91.2625 7.74469 91.4837 6.89344C91.5118 6.77774 91.567 6.67037 91.6447 6.58022C91.7225 6.49007 91.8206 6.41972 91.9309 6.375C94.7922 5.26969 99.5866 5.25 99.9794 5.25H100.005C100.055 5.25 105.103 5.23313 108.067 6.375C108.177 6.41936 108.275 6.48913 108.353 6.57859C108.43 6.66806 108.486 6.77467 108.514 6.88969C108.738 7.74469 109 9.32157 109 12C109 14.6784 108.737 16.2553 108.516 17.1066V17.1113Z" fill="white"/>
<path d="M144 7.5C143.11 7.5 142.24 7.76392 141.5 8.25839C140.76 8.75285 140.183 9.45566 139.843 10.2779C139.502 11.1002 139.413 12.005 139.586 12.8779C139.76 13.7508 140.189 14.5526 140.818 15.182C141.447 15.8113 142.249 16.2399 143.122 16.4135C143.995 16.5872 144.9 16.4981 145.722 16.1575C146.544 15.8169 147.247 15.2401 147.742 14.5001C148.236 13.76 148.5 12.89 148.5 12C148.499 10.8069 148.024 9.66303 147.181 8.81939C146.337 7.97575 145.193 7.50124 144 7.5ZM144 15C143.407 15 142.827 14.8241 142.333 14.4944C141.84 14.1648 141.455 13.6962 141.228 13.1481C141.001 12.5999 140.942 11.9967 141.058 11.4147C141.173 10.8328 141.459 10.2982 141.879 9.87868C142.298 9.45912 142.833 9.1734 143.415 9.05764C143.997 8.94189 144.6 9.0013 145.148 9.22836C145.696 9.45542 146.165 9.83994 146.494 10.3333C146.824 10.8266 147 11.4067 147 12C147 12.7956 146.684 13.5587 146.121 14.1213C145.559 14.6839 144.796 15 144 15ZM148.5 2.25H139.5C138.108 2.25149 136.774 2.80509 135.789 3.78933C134.805 4.77358 134.251 6.10807 134.25 7.5V16.5C134.251 17.8919 134.805 19.2264 135.789 20.2107C136.774 21.1949 138.108 21.7485 139.5 21.75H148.5C149.892 21.7485 151.226 21.1949 152.211 20.2107C153.195 19.2264 153.749 17.8919 153.75 16.5V7.5C153.749 6.10807 153.195 4.77358 152.211 3.78933C151.226 2.80509 149.892 2.25149 148.5 2.25ZM152.25 16.5C152.25 17.4946 151.855 18.4484 151.152 19.1516C150.448 19.8549 149.495 20.25 148.5 20.25H139.5C138.505 20.25 137.552 19.8549 136.848 19.1516C136.145 18.4484 135.75 17.4946 135.75 16.5V7.5C135.75 6.50544 136.145 5.55161 136.848 4.84835C137.552 4.14509 138.505 3.75 139.5 3.75H148.5C149.495 3.75 150.448 4.14509 151.152 4.84835C151.855 5.55161 152.25 6.50544 152.25 7.5V16.5ZM150 7.125C150 7.3475 149.934 7.56501 149.81 7.75002C149.687 7.93502 149.511 8.07922 149.306 8.16436C149.1 8.24951 148.874 8.27179 148.656 8.22838C148.437 8.18498 148.237 8.07783 148.08 7.9205C147.922 7.76316 147.815 7.56271 147.772 7.34448C147.728 7.12625 147.75 6.90005 147.836 6.69448C147.921 6.48891 148.065 6.31321 148.25 6.1896C148.435 6.06598 148.652 6 148.875 6C149.173 6 149.46 6.11853 149.67 6.3295C149.881 6.54048 150 6.82663 150 7.125Z" fill="white"/>
</svg>
