<svg width="156" height="25" viewBox="0 0 156 25" fill="none" xmlns="http://www.w3.org/2000/svg">
<path d="M23.1928 7.39575C23.1361 7.2587 23.04 7.14155 22.9166 7.05911C22.7933 6.97668 22.6483 6.93266 22.5 6.93263H19.6472C19.2483 6.25405 18.6807 5.69021 17.9994 5.29595C17.3181 4.90168 16.5465 4.69039 15.7594 4.68263C15.173 4.67494 14.591 4.7846 14.0476 5.00518C13.5042 5.22575 13.0104 5.55277 12.5953 5.967C12.1681 6.38628 11.829 6.88674 11.5979 7.43896C11.3669 7.99118 11.2486 8.58403 11.25 9.18263V9.75357C7.47562 8.75794 4.38844 5.68763 4.35562 5.65482C4.255 5.55331 4.12747 5.48266 3.98805 5.4512C3.84862 5.41974 3.70311 5.42877 3.56865 5.47724C3.43419 5.5257 3.31637 5.61158 3.22908 5.72476C3.14179 5.83794 3.08866 5.9737 3.07594 6.11607C2.67187 10.5964 3.97312 13.5945 5.13844 15.3204C5.70663 16.1737 6.39786 16.9382 7.18969 17.5892C5.76187 19.2326 3.51375 20.0961 3.48937 20.1054C3.38354 20.1451 3.28804 20.2081 3.21 20.2899C3.13195 20.3716 3.07339 20.4699 3.03868 20.5775C3.00397 20.685 2.99402 20.799 3.00956 20.9109C3.0251 21.0229 3.06574 21.1299 3.12844 21.2239C3.19875 21.3289 3.48 21.6973 4.16719 22.0414C5.01656 22.467 6.13875 22.6826 7.5 22.6826C14.1253 22.6826 19.6612 17.5808 20.2266 11.0164L23.0306 8.21325C23.1355 8.10831 23.2069 7.97462 23.2357 7.82911C23.2646 7.68359 23.2497 7.53278 23.1928 7.39575ZM18.9741 10.1529C18.8455 10.2818 18.7682 10.4531 18.7566 10.6348C18.375 16.5495 13.4325 21.1826 7.5 21.1826C6.51 21.1826 5.8125 21.0514 5.32312 20.8939C6.40219 20.3079 7.90687 19.3001 8.87437 17.8489C8.93116 17.7635 8.96985 17.6675 8.98806 17.5666C9.00626 17.4657 9.0036 17.3622 8.98023 17.2624C8.95686 17.1626 8.91328 17.0686 8.85218 16.9863C8.79109 16.904 8.71377 16.8351 8.625 16.7839C8.58094 16.7586 4.50844 14.3145 4.5 7.78388C6 9.00263 8.74219 10.8936 11.8753 11.4204C11.9827 11.4385 12.0927 11.433 12.1978 11.4043C12.3028 11.3756 12.4003 11.3244 12.4836 11.2542C12.5668 11.184 12.6338 11.0965 12.6798 10.9978C12.7258 10.8991 12.7497 10.7915 12.75 10.6826V9.18263C12.7492 8.78255 12.8283 8.38634 12.9829 8.01733C13.1375 7.64831 13.3643 7.31393 13.65 7.03388C13.9239 6.75947 14.25 6.54276 14.6091 6.39655C14.9682 6.25033 15.3529 6.1776 15.7406 6.18263C16.9275 6.19763 18.0366 6.92138 18.5006 7.98357C18.5591 8.11711 18.6553 8.23071 18.7773 8.31046C18.8994 8.39022 19.042 8.43267 19.1878 8.43263H20.6878L18.9741 10.1529Z" fill="white"/>
<path d="M56 3.18262C54.0716 3.18262 52.1866 3.75444 50.5832 4.82579C48.9798 5.89713 47.7301 7.41987 46.9922 9.20145C46.2542 10.983 46.0611 12.9434 46.4373 14.8347C46.8135 16.7261 47.7421 18.4633 49.1057 19.8269C50.4693 21.1905 52.2066 22.1191 54.0979 22.4953C55.9892 22.8715 57.9496 22.6784 59.7312 21.9404C61.5127 21.2025 63.0355 19.9528 64.1068 18.3494C65.1782 16.746 65.75 14.861 65.75 12.9326C65.7473 10.3476 64.7192 7.86923 62.8913 6.04134C61.0634 4.21345 58.585 3.18535 56 3.18262ZM56.75 21.1479V15.1826H59C59.1989 15.1826 59.3897 15.1036 59.5303 14.9629C59.671 14.8223 59.75 14.6315 59.75 14.4326C59.75 14.2337 59.671 14.0429 59.5303 13.9023C59.3897 13.7616 59.1989 13.6826 59 13.6826H56.75V11.4326C56.75 11.0348 56.908 10.6533 57.1893 10.372C57.4706 10.0907 57.8522 9.93262 58.25 9.93262H59.75C59.9489 9.93262 60.1397 9.8536 60.2803 9.71295C60.421 9.57229 60.5 9.38153 60.5 9.18262C60.5 8.98371 60.421 8.79294 60.2803 8.65229C60.1397 8.51163 59.9489 8.43262 59.75 8.43262H58.25C57.4543 8.43262 56.6913 8.74869 56.1287 9.3113C55.5661 9.87391 55.25 10.637 55.25 11.4326V13.6826H53C52.8011 13.6826 52.6103 13.7616 52.4697 13.9023C52.329 14.0429 52.25 14.2337 52.25 14.4326C52.25 14.6315 52.329 14.8223 52.4697 14.9629C52.6103 15.1036 52.8011 15.1826 53 15.1826H55.25V21.1479C53.1357 20.9549 51.1773 19.9543 49.782 18.3541C48.3867 16.754 47.6619 14.6775 47.7585 12.5567C47.8551 10.4359 48.7656 8.43389 50.3006 6.96722C51.8356 5.50055 53.877 4.68209 56 4.68209C58.123 4.68209 60.1644 5.50055 61.6994 6.96722C63.2344 8.43389 64.1448 10.4359 64.2415 12.5567C64.3381 14.6775 63.6133 16.754 62.218 18.3541C60.8227 19.9543 58.8643 20.9549 56.75 21.1479Z" fill="white"/>
<path d="M103.416 12.3082L98.9163 9.30825C98.8033 9.23287 98.6719 9.18958 98.5363 9.18301C98.4006 9.17644 98.2657 9.20683 98.146 9.27093C98.0263 9.33503 97.9262 9.43044 97.8564 9.54698C97.7867 9.66352 97.7499 9.79681 97.75 9.93262V15.9326C97.7499 16.0684 97.7867 16.2017 97.8564 16.3183C97.9262 16.4348 98.0263 16.5302 98.146 16.5943C98.2657 16.6584 98.4006 16.6888 98.5363 16.6822C98.6719 16.6757 98.8033 16.6324 98.9163 16.557L103.416 13.557C103.519 13.4885 103.603 13.3957 103.662 13.2868C103.72 13.1779 103.751 13.0562 103.751 12.9326C103.751 12.809 103.72 12.6874 103.662 12.5785C103.603 12.4695 103.519 12.3767 103.416 12.3082ZM99.25 14.5311V11.3389L101.648 12.9326L99.25 14.5311ZM109.968 7.45012C109.88 7.10451 109.711 6.78485 109.475 6.51753C109.238 6.2502 108.942 6.04286 108.61 5.91262C105.396 4.67137 100.281 4.68262 100 4.68262C99.7188 4.68262 94.6037 4.67137 91.39 5.91262C91.0579 6.04286 90.7615 6.2502 90.5253 6.51753C90.2891 6.78485 90.1199 7.10451 90.0316 7.45012C89.7888 8.38575 89.5 10.0957 89.5 12.9326C89.5 15.7695 89.7888 17.4795 90.0316 18.4151C90.1198 18.7609 90.289 19.0807 90.5252 19.3482C90.7614 19.6157 91.0578 19.8232 91.39 19.9536C94.4688 21.1414 99.2875 21.1826 99.9381 21.1826H100.062C100.713 21.1826 105.534 21.1414 108.61 19.9536C108.942 19.8232 109.239 19.6157 109.475 19.3482C109.711 19.0807 109.88 18.7609 109.968 18.4151C110.211 17.4776 110.5 15.7695 110.5 12.9326C110.5 10.0957 110.211 8.38575 109.968 7.45012ZM108.516 18.0439C108.488 18.1589 108.432 18.2655 108.355 18.355C108.277 18.4444 108.179 18.5142 108.069 18.5586C105.102 19.7042 100.055 19.6836 100.007 19.6836H100C99.9494 19.6836 94.9066 19.7023 91.9375 18.5586C91.8276 18.5142 91.7298 18.4444 91.652 18.355C91.5743 18.2655 91.5189 18.1589 91.4903 18.0439C91.2625 17.1879 91 15.6111 91 12.9326C91 10.2542 91.2625 8.67731 91.4837 7.82606C91.5118 7.71035 91.567 7.60299 91.6447 7.51283C91.7225 7.42268 91.8206 7.35234 91.9309 7.30762C94.7922 6.20231 99.5866 6.18262 99.9794 6.18262H100.005C100.055 6.18262 105.103 6.16575 108.067 7.30762C108.177 7.35198 108.275 7.42175 108.353 7.51121C108.43 7.60068 108.486 7.70729 108.514 7.82231C108.738 8.67731 109 10.2542 109 12.9326C109 15.6111 108.737 17.1879 108.516 18.0392V18.0439Z" fill="white"/>
<path d="M144 8.43262C143.11 8.43262 142.24 8.69654 141.5 9.191C140.76 9.68547 140.183 10.3883 139.843 11.2105C139.502 12.0328 139.413 12.9376 139.586 13.8105C139.76 14.6834 140.189 15.4853 140.818 16.1146C141.447 16.7439 142.249 17.1725 143.122 17.3462C143.995 17.5198 144.9 17.4307 145.722 17.0901C146.544 16.7495 147.247 16.1727 147.742 15.4327C148.236 14.6927 148.5 13.8226 148.5 12.9326C148.499 11.7395 148.024 10.5957 147.181 9.75201C146.337 8.90836 145.193 8.43386 144 8.43262ZM144 15.9326C143.407 15.9326 142.827 15.7567 142.333 15.427C141.84 15.0974 141.455 14.6288 141.228 14.0807C141.001 13.5325 140.942 12.9293 141.058 12.3473C141.173 11.7654 141.459 11.2309 141.879 10.8113C142.298 10.3917 142.833 10.106 143.415 9.99026C143.997 9.87451 144.6 9.93392 145.148 10.161C145.696 10.388 146.165 10.7726 146.494 11.2659C146.824 11.7593 147 12.3393 147 12.9326C147 13.7283 146.684 14.4913 146.121 15.0539C145.559 15.6165 144.796 15.9326 144 15.9326ZM148.5 3.18262H139.5C138.108 3.18411 136.774 3.73771 135.789 4.72195C134.805 5.70619 134.251 7.04069 134.25 8.43262V17.4326C134.251 18.8245 134.805 20.159 135.789 21.1433C136.774 22.1275 138.108 22.6811 139.5 22.6826H148.5C149.892 22.6811 151.226 22.1275 152.211 21.1433C153.195 20.159 153.749 18.8245 153.75 17.4326V8.43262C153.749 7.04069 153.195 5.70619 152.211 4.72195C151.226 3.73771 149.892 3.18411 148.5 3.18262ZM152.25 17.4326C152.25 18.4272 151.855 19.381 151.152 20.0843C150.448 20.7875 149.495 21.1826 148.5 21.1826H139.5C138.505 21.1826 137.552 20.7875 136.848 20.0843C136.145 19.381 135.75 18.4272 135.75 17.4326V8.43262C135.75 7.43806 136.145 6.48423 136.848 5.78097C137.552 5.07771 138.505 4.68262 139.5 4.68262H148.5C149.495 4.68262 150.448 5.07771 151.152 5.78097C151.855 6.48423 152.25 7.43806 152.25 8.43262V17.4326ZM150 8.05762C150 8.28012 149.934 8.49763 149.81 8.68263C149.687 8.86764 149.511 9.01183 149.306 9.09698C149.1 9.18213 148.874 9.20441 148.656 9.161C148.437 9.11759 148.237 9.01045 148.08 8.85311C147.922 8.69578 147.815 8.49532 147.772 8.27709C147.728 8.05887 147.75 7.83266 147.836 7.6271C147.921 7.42153 148.065 7.24583 148.25 7.12221C148.435 6.9986 148.652 6.93262 148.875 6.93262C149.173 6.93262 149.46 7.05114 149.67 7.26212C149.881 7.4731 150 7.75925 150 8.05762Z" fill="white"/>
</svg>
