<?xml version="1.0" encoding="utf-8"?>
<!-- Generator: Adobe Illustrator 26.0.0, SVG Export Plug-In . SVG Version: 6.00 Build 0)  -->
<svg version="1.1" id="Layer_1" xmlns="http://www.w3.org/2000/svg" xmlns:xlink="http://www.w3.org/1999/xlink" x="0px" y="0px"
	 viewBox="0 0 1160 245" style="enable-background:new 0 0 1160 245;" xml:space="preserve">
<style type="text/css">
	.st0{fill:none;}
	.st1{fill:#FFFFFF;}
</style>
<path d="M10,0h1140c5.5,0,10,4.5,10,10v225c0,5.5-4.5,10-10,10H10c-5.5,0-10-4.5-10-10V10C0,4.5,4.5,0,10,0z"/>
<path class="st0" d="M10,0h1140c5.5,0,10,4.5,10,10v225c0,5.5-4.5,10-10,10H10c-5.5,0-10-4.5-10-10V10C0,4.5,4.5,0,10,0z"/>
<g>
	<path class="st1" d="M1068,200.6c-6.6,6.3-13.3,12.7-19.9,19c-18,17.3-36.1,34.5-54.1,51.8c-4.7,4.5-9.4,9-14.1,13.5
		c-0.3,0.3-0.6,0.5-1,0.9c-0.1-0.2-0.2-0.3-0.2-0.4c0-0.3,0-0.7,0-1c0-22,0-43.9,0-65.9c0-0.4,0-0.9,0-1.5c0.2-0.2,0.5-0.4,0.8-0.7
		c12.2-11.1,24.3-22.2,36.5-33.3c0.1-0.1,0.2-0.2,0.3-0.3c0.3-0.2,0.5-0.6,0.5-1c0-0.3,0-0.5,0-0.8c0-31.8,0-63.5,0-95.3
		c0-0.4,0.1-0.9-0.1-1.3c-0.4,0-0.6,0.3-0.8,0.5c-3.6,3.2-7.2,6.4-10.9,9.7c-14.1,12.6-28.2,25.1-42.2,37.7c-5.6,5-11.2,10-16.9,15
		c-0.1,0.1-0.3,0.3-0.4,0.4c-0.2,0.2-0.3,0.4-0.3,0.7c0,0.4,0,0.8,0,1.2c0,53.6,0,107.3,0,160.9c0,0.4,0,0.7,0,1.1
		c0.1,0.7-0.2,1.1-0.7,1.6c-3.8,3.8-7.6,7.6-11.4,11.4c-4.8,4.8-9.6,9.6-14.4,14.4c-0.3,0.3-0.5,0.6-0.7,0.9
		c-0.2-0.1-0.2-0.1-0.3-0.1c0,0-0.1,0-0.1-0.1c-0.1-0.1-0.2-0.2-0.3-0.3c-8-8.9-16.1-17.8-24.2-26.8c0-0.4,0-0.8,0-1.2
		c0-61.5,0-123,0-184.4c0-0.1,0-0.3,0-0.4c-0.1-0.6,0.2-1,0.6-1.3c3.4-3.1,6.7-6.1,10.1-9.2c12.1-11.1,24.3-22.3,36.4-33.4
		c15.1-13.8,30.2-27.7,45.3-41.5c9-8.2,17.9-16.4,26.9-24.6c0.3-0.3,0.5-0.6,1-0.8c0.4,0.2,0.6,0.5,0.9,0.8
		c12.4,11.8,24.8,23.5,37.3,35.3c5.4,5.1,10.8,10.2,16.1,15.3c0,0,0.1,0.1,0.2,0.1C1068,111.6,1068,156.1,1068,200.6z"/>
	<path class="st1" d="M1068,27.9c-0.3,0.3-0.6,0.5-1,0.3c-0.4-0.2-0.5-0.5-0.5-0.9c0-0.8,0-1.6,0-2.3c0-1.5,0-2.9,0-4.4
		c0-0.2,0-0.5-0.1-0.7c-0.3,0-0.4,0.3-0.5,0.4c-1,1.7-2,3.4-3,5.1c-0.1,0.2-0.3,0.5-0.4,0.7c-0.3,0.4-0.9,0.4-1.2,0
		c-0.2-0.2-0.3-0.5-0.5-0.7c-0.9-1.5-1.8-3.1-2.8-4.6c-0.2-0.3-0.4-0.6-0.6-0.9c-0.3,0.2-0.2,0.4-0.2,0.6c0,2.1,0,4.2,0,6.3
		c0,0.3,0,0.6,0,0.9c-0.1,0.4-0.5,0.7-0.9,0.7c-0.4,0-0.7-0.3-0.8-0.7c0-0.2,0-0.4,0-0.7c0-3.3,0-6.7,0-10c0-0.6,0.1-1.1,0.6-1.5
		c0.1,0,0.3,0,0.4,0c0.4,0.3,0.7,0.7,0.9,1.1c1.3,2.2,2.6,4.3,3.9,6.5c0.1,0.2,0.3,0.5,0.5,0.7c0.3-0.4,0.5-0.7,0.7-1
		c1.2-2.1,2.5-4.2,3.7-6.3c0.2-0.4,0.5-0.7,0.8-1c0.1,0,0.3,0,0.4,0c0.1,0.1,0.3,0.1,0.4,0.2C1068,19.7,1068,23.8,1068,27.9z"/>
	<path class="st1" d="M1053.7,15.4c0.1,0.2,0.3,0.3,0.4,0.5c0.3,0.5,0.1,1.1-0.5,1.2c-0.2,0.1-0.5,0-0.8,0.1c-0.9,0-1.9,0-2.7,0
		c-0.3,0.3-0.2,0.7-0.2,1c0,2.8,0,5.6,0,8.4c0,0.3,0,0.6,0,0.9c0,0.5-0.4,0.9-0.8,0.8c-0.4,0-0.7-0.3-0.8-0.8c0-0.3,0-0.6,0-0.9
		c0-2.7,0-5.4,0-8.1c0-0.4,0-0.7,0-1.2c-0.2,0-0.4-0.1-0.7-0.1c-0.7,0-1.3,0-2,0c-0.2,0-0.4,0-0.7,0c-0.4,0-0.8-0.1-1-0.6
		c-0.2-0.4,0-0.8,0.5-1c0.1,0,0.1-0.1,0.1-0.2C1047.6,15.4,1050.6,15.4,1053.7,15.4z"/>
	<path class="st1" d="M1068,15.6c-0.1-0.1-0.3-0.1-0.4-0.2c0.1,0,0.2,0,0.3,0C1068.1,15.4,1067.9,15.5,1068,15.6z"/>
	<path class="st1" d="M825.4,15.5c0.8,0.6,86.5,79,88,80.5c-0.1,0.4-0.5,0.6-0.8,0.8c-3.2,2.8-6.5,5.5-9.7,8.3
		c-5.9,5-11.7,10-17.6,15c-0.2,0.2-0.4,0.4-0.7,0.6c0,6.6,0,13.2,0,19.7c-0.4,0.2-0.5-0.1-0.7-0.3c-3.1-2.9-6.3-5.8-9.4-8.8
		c-12.8-12-25.6-24-38.5-36c-3.6-3.4-7.2-6.8-10.9-10.2c-0.2-0.2-0.5-0.4-0.8-0.7c-0.1,0.2-0.1,0.4-0.1,0.5c0,0.4,0,0.9,0,1.3
		c0,54.8,0,109.7,0,164.5c0,0.5,0,1,0,1.5c-0.5-0.1-0.7-0.4-0.9-0.7c-3.5-3.3-6.9-6.5-10.4-9.8c-14.4-13.6-28.8-27.2-43.3-40.8
		c-0.1-0.1-0.3-0.3-0.4-0.4c-0.3-0.2-0.4-0.5-0.4-0.9c0-0.3,0-0.5,0-0.8c0-42.8,0-85.5,0-128.3c0-1.6-0.1-1.2,0.9-2.2
		c18.2-17.4,36.5-34.9,54.8-52.3C824.7,16.1,825,15.8,825.4,15.5z"/>
</g>
</svg>
