<svg width="24" height="25" viewBox="0 0 24 25" fill="none" xmlns="http://www.w3.org/2000/svg">
<path d="M12 6.42834C11.2583 6.42834 10.5333 6.64828 9.91661 7.06033C9.29993 7.47239 8.81928 8.05806 8.53545 8.74328C8.25162 9.4285 8.17736 10.1825 8.32205 10.9099C8.46675 11.6374 8.8239 12.3055 9.34835 12.83C9.8728 13.3544 10.541 13.7116 11.2684 13.8563C11.9958 14.001 12.7498 13.9267 13.4351 13.6429C14.1203 13.3591 14.706 12.8784 15.118 12.2617C15.5301 11.645 15.75 10.92 15.75 10.1783C15.75 9.18378 15.3549 8.22996 14.6517 7.52669C13.9484 6.82343 12.9946 6.42834 12 6.42834ZM12 12.4283C11.555 12.4283 11.12 12.2964 10.75 12.0492C10.38 11.8019 10.0916 11.4505 9.92127 11.0394C9.75097 10.6282 9.70642 10.1758 9.79323 9.73939C9.88005 9.30293 10.0943 8.90202 10.409 8.58735C10.7237 8.27269 11.1246 8.05839 11.561 7.97158C11.9975 7.88476 12.4499 7.92932 12.861 8.09962C13.2722 8.26991 13.6236 8.5583 13.8708 8.92831C14.118 9.29832 14.25 9.73334 14.25 10.1783C14.25 10.7751 14.0129 11.3474 13.591 11.7693C13.169 12.1913 12.5967 12.4283 12 12.4283ZM12 1.92834C9.81273 1.93083 7.71575 2.80082 6.16911 4.34745C4.62247 5.89409 3.75248 7.99107 3.75 10.1783C3.75 13.1221 5.11031 16.2421 7.6875 19.2018C8.84552 20.5392 10.1489 21.7435 11.5734 22.7924C11.6995 22.8807 11.8498 22.9281 12.0037 22.9281C12.1577 22.9281 12.308 22.8807 12.4341 22.7924C13.856 21.743 15.1568 20.5388 16.3125 19.2018C18.8859 16.2421 20.25 13.1221 20.25 10.1783C20.2475 7.99107 19.3775 5.89409 17.8309 4.34745C16.2843 2.80082 14.1873 1.93083 12 1.92834ZM12 21.2408C10.4503 20.0221 5.25 15.5455 5.25 10.1783C5.25 8.38813 5.96116 6.67124 7.22703 5.40537C8.4929 4.1395 10.2098 3.42834 12 3.42834C13.7902 3.42834 15.5071 4.1395 16.773 5.40537C18.0388 6.67124 18.75 8.38813 18.75 10.1783C18.75 15.5437 13.5497 20.0221 12 21.2408Z" fill="white"/>
</svg>
